<?xml version="1.0" standalone="no"?><!DOCTYPE svg PUBLIC "-//W3C//DTD SVG 1.1//EN" "http://www.w3.org/Graphics/SVG/1.1/DTD/svg11.dtd"><svg t="1736245044442" class="icon" viewBox="0 0 1024 1024" version="1.1" xmlns="http://www.w3.org/2000/svg" p-id="1467" xmlns:xlink="http://www.w3.org/1999/xlink" width="200" height="200"><path d="M359.253333 853.333333H896a85.333333 85.333333 0 0 0 85.333333-85.333333V256a85.333333 85.333333 0 0 0-85.333333-85.333333H359.253333a42.666667 42.666667 0 0 0-30.037333 12.373333l-301.354667 298.666667a42.666667 42.666667 0 0 0 0 60.586666l301.354667 298.666667a42.666667 42.666667 0 0 0 30.037333 12.373333z" fill="#000000" opacity=".3" p-id="1468"></path><path d="M537.002667 512l-60.330667-60.330667a42.666667 42.666667 0 1 1 60.330667-60.330666L597.333333 451.669333l60.330667-60.330666a42.666667 42.666667 0 1 1 60.330667 60.330666L657.664 512l60.330667 60.330667a42.666667 42.666667 0 1 1-60.330667 60.330666L597.333333 572.330667l-60.330666 60.330666a42.666667 42.666667 0 1 1-60.330667-60.330666L537.002667 512z" fill="#000000" p-id="1469"></path></svg>