<?xml version="1.0" standalone="no"?><!DOCTYPE svg PUBLIC "-//W3C//DTD SVG 1.1//EN" "http://www.w3.org/Graphics/SVG/1.1/DTD/svg11.dtd"><svg fill="currentColor" t="1736243687623" class="icon" viewBox="0 0 1024 1024" version="1.1" xmlns="http://www.w3.org/2000/svg" p-id="1464" xmlns:xlink="http://www.w3.org/1999/xlink" width="20" height="20"><path d="M512 810.666667c-47.146667 0-85.333333 38.186667-85.333333 85.333333s38.186667 85.333333 85.333333 85.333333 85.333333-38.186667 85.333333-85.333333-38.186667-85.333333-85.333333-85.333333zM256 42.666667C208.853333 42.666667 170.666667 80.853333 170.666667 128s38.186667 85.333333 85.333333 85.333333 85.333333-38.186667 85.333333-85.333333-38.186667-85.333333-85.333333-85.333333z m0 256c-47.146667 0-85.333333 38.186667-85.333333 85.333333s38.186667 85.333333 85.333333 85.333333 85.333333-38.186667 85.333333-85.333333-38.186667-85.333333-85.333333-85.333333z m0 256c-47.146667 0-85.333333 38.186667-85.333333 85.333333s38.186667 85.333333 85.333333 85.333333 85.333333-38.186667 85.333333-85.333333-38.186667-85.333333-85.333333-85.333333z m512-341.333334c47.146667 0 85.333333-38.186667 85.333333-85.333333s-38.186667-85.333333-85.333333-85.333333-85.333333 38.186667-85.333333 85.333333 38.186667 85.333333 85.333333 85.333333zM512 554.666667c-47.146667 0-85.333333 38.186667-85.333333 85.333333s38.186667 85.333333 85.333333 85.333333 85.333333-38.186667 85.333333-85.333333-38.186667-85.333333-85.333333-85.333333z m256 0c-47.146667 0-85.333333 38.186667-85.333333 85.333333s38.186667 85.333333 85.333333 85.333333 85.333333-38.186667 85.333333-85.333333-38.186667-85.333333-85.333333-85.333333z m0-256c-47.146667 0-85.333333 38.186667-85.333333 85.333333s38.186667 85.333333 85.333333 85.333333 85.333333-38.186667 85.333333-85.333333-38.186667-85.333333-85.333333-85.333333z m-256 0c-47.146667 0-85.333333 38.186667-85.333333 85.333333s38.186667 85.333333 85.333333 85.333333 85.333333-38.186667 85.333333-85.333333-38.186667-85.333333-85.333333-85.333333z m0-256c-47.146667 0-85.333333 38.186667-85.333333 85.333333s38.186667 85.333333 85.333333 85.333333 85.333333-38.186667 85.333333-85.333333-38.186667-85.333333-85.333333-85.333333z" p-id="1465"></path></svg>