<?xml version="1.0" standalone="no"?><!DOCTYPE svg PUBLIC "-//W3C//DTD SVG 1.1//EN" "http://www.w3.org/Graphics/SVG/1.1/DTD/svg11.dtd"><svg t="1736156296110" class="icon" viewBox="0 0 1024 1024" version="1.1" xmlns="http://www.w3.org/2000/svg" p-id="4821" xmlns:xlink="http://www.w3.org/1999/xlink" width="200" height="200"><path d="M878.4896 0H145.5104A145.6128 145.6128 0 0 0 0 145.5104v732.9792A145.6128 145.6128 0 0 0 145.5104 1024h732.9792A145.6128 145.6128 0 0 0 1024 878.4896V145.5104A145.6128 145.6128 0 0 0 878.4896 0zM145.5104 71.424h732.9792c40.8576 0 74.0864 33.28 74.0864 74.0864v732.9792c0 40.8576-33.28 74.0864-74.0864 74.0864H145.5104c-40.8576 0-74.0864-33.28-74.0864-74.0864V145.5104c0-40.8576 33.28-74.0864 74.0864-74.0864z" fill="#3A4347" p-id="4822"></path><path d="M387.584 768v-226.6112h248.832V768H716.8V256h-80.384v213.7088H387.584V256H307.2v512z" fill="#3A4347" p-id="4823"></path></svg>