<?xml version="1.0" standalone="no"?><!DOCTYPE svg PUBLIC "-//W3C//DTD SVG 1.1//EN" "http://www.w3.org/Graphics/SVG/1.1/DTD/svg11.dtd"><svg t="1736320599137" class="icon" viewBox="0 0 1024 1024" version="1.1" xmlns="http://www.w3.org/2000/svg" p-id="27292" xmlns:xlink="http://www.w3.org/1999/xlink" width="200" height="200"><path d="M512 0a512 512 0 1 0 512 512 512 512 0 0 0-512-512m-6.4 230.4A134.4 134.4 0 0 1 640 364.8a134.4 134.4 0 0 1-134.4 140.8 140.8 140.8 0 0 1-134.4-140.8 140.8 140.8 0 0 1 134.4-134.4m-236.8 505.6a172.8 172.8 0 0 1 115.2-192c32-19.2 83.2 19.2 121.6 19.2s89.6-38.4 128-19.2a185.6 185.6 0 0 1 121.6 192c0 38.4-486.4 44.8-486.4 0" fill="#e6e6e6" p-id="27293"></path></svg>